<svg width="765" height="783" viewBox="0 0 765 783" fill="none" xmlns="http://www.w3.org/2000/svg">
<path d="M245.011 293.562C247.811 312.762 252.177 377.229 254.011 407.062C270.811 407.062 365.01 335.062 410.01 299.062C498.81 235.462 602.676 237.896 643.51 247.062C737.11 277.863 759.843 259.896 759.51 247.062C787.01 101.562 656.51 74.0625 650.51 67.5625C520.11 51.9625 384.177 111.396 332.511 143.062C261.311 187.062 244.511 261.729 245.011 293.562Z" fill="white" stroke="#092763" stroke-width="2"/>
<path d="M93.5006 547.001C114.301 594.201 108.834 640.667 103.501 658.001C130.501 682.001 136.5 688 141 688C144.6 688 139.5 676.333 136.5 670.5C135 671.167 132.9 671.9 136.5 669.5C140.1 667.1 150 674.833 154.5 679C262.1 533.4 268.333 398 258 348.5C235.6 236.1 290.333 179.333 320.5 165C426.9 69.8 589.167 61.667 657 69.5005C431 -71.6995 263.167 37.0005 207.5 109.001C180.3 145.401 111.834 220.834 81.0006 254.001C-5.7994 343.601 22.5006 429.001 47.5006 460.501C63.9006 491.701 85.0006 531.167 93.5006 547.001Z" fill="#C40C0A"/>
<path d="M130.409 647.005C106.575 618.273 93.6652 628.382 90.1894 637.028C32.9901 632.239 26.6322 640.354 30.6032 645.01C36.5607 647.803 35.0724 654.155 33.5835 656.981C2.6 670.948 0.149985 688.074 2.79791 694.891C13.1259 689.304 20.6735 687.575 23.1563 687.409C11.2394 709.755 25.1424 723.988 33.5835 728.311C34.378 762.23 58.0798 761.066 69.8315 756.244C69.4342 765.821 78.6036 773.536 83.2379 776.196C117.797 790.163 121.14 770.377 118.492 758.738C149.079 761.93 167.318 748.762 172.614 741.779C166.259 743.774 164.339 738.619 164.173 735.793C181.651 719.033 188.007 703.537 189 697.884L170.132 694.891C184.035 667.357 162.022 647.837 149.277 641.518C152.852 649.499 150.767 655.152 149.277 656.981C141.73 661.371 133.554 652.159 130.409 647.005Z" fill="white" stroke="#092763" stroke-width="3"/>
</svg>
