<svg width="306" height="151" viewBox="0 0 306 151" fill="none" xmlns="http://www.w3.org/2000/svg">
<path d="M0.281433 66.0785V89.1569H7.84524H15.409L15.4231 77.8358L15.4442 66.5077L20.6861 74.5921C25.4707 81.973 25.9421 82.6836 26.118 82.6836C26.2869 82.6836 26.7442 82.0011 31.571 74.564L36.834 66.4443L36.8551 77.8006L36.8692 89.1569H44.5737H52.2782V66.0785V43H44.2008H36.1304L31.2051 51.0775L26.2798 59.1549L21.3546 51.0775L16.4363 43H8.35888H0.281433V66.0785Z" fill="#0054A5"/>
<path d="M57.8367 66.0785V89.1569H65.5413H73.2458V66.0785V43H65.5413H57.8367V66.0785Z" fill="#0054A5"/>
<path d="M78.8043 66.0785V89.1569H86.4737H94.143L94.1571 78.5746L94.1782 67.9923L102.692 78.5746L111.206 89.1569H118.087H124.961V66.0785V43H117.292H109.622L109.608 53.1039L109.587 63.2077L101.461 53.118L93.3339 43.0352L86.0656 43.0141L78.8043 43V66.0785Z" fill="#0054A5"/>
<path d="M131.294 66.0855V89.1639L141.447 89.1357C152.318 89.1076 152.198 89.1146 154.97 88.7347C162.189 87.7426 168.17 84.696 171.857 80.1155C173.053 78.6379 174.348 76.3019 175.023 74.4303C176.543 70.1875 176.866 64.9597 175.903 60.2385C174.594 53.8356 170.829 49.0229 164.891 46.1592C161.668 44.6113 158.073 43.6614 153.88 43.2463C151.734 43.0422 149.665 43 140.532 43H131.294V66.0855ZM151.98 56.6782C154.9 57.1144 156.982 58.008 158.474 59.4575C159.642 60.5903 160.311 61.9412 160.683 63.9184C160.852 64.8401 160.852 67.3168 160.676 68.2948C160.135 71.3625 158.481 73.3889 155.575 74.564C153.549 75.3802 151.853 75.6475 148.624 75.6475H146.773V66.0714V56.4882L149.011 56.5304C150.481 56.5586 151.494 56.6078 151.98 56.6782Z" fill="#0054A5"/>
<path d="M186.914 94.0821C183.691 94.2721 180.757 94.9546 178.224 96.1155C173.869 98.0997 170.9 101.554 169.816 105.896C169.028 109.034 169.303 112.7 170.492 115.078C172.187 118.462 175.853 121.044 181.355 122.719C183.016 123.226 186.569 124.112 188.673 124.541C192.641 125.365 194.098 125.871 194.809 126.68C195.217 127.145 195.28 127.813 194.97 128.411C194.738 128.869 194.147 129.241 193.303 129.453C192.613 129.628 189.496 129.628 188.11 129.453C183.375 128.84 179.554 127.391 176.001 124.851C175.438 124.443 175.136 124.274 175.072 124.316C174.953 124.394 166.967 133.913 166.91 134.04C166.889 134.089 166.939 134.188 167.016 134.251C167.1 134.315 167.466 134.61 167.839 134.92C172.75 138.909 179.533 141.266 187.568 141.794C189.243 141.899 193.035 141.843 194.337 141.688C199.03 141.133 202.794 139.739 205.623 137.516C206.32 136.967 207.523 135.743 208.05 135.046C209.303 133.393 210.154 131.535 210.576 129.544C211.027 127.44 210.999 124.612 210.513 122.684C209.62 119.138 206.777 116.225 202.274 114.241C199.818 113.157 195.984 112.095 191.663 111.285C188.849 110.765 187.589 110.434 186.604 109.977C185.542 109.484 185.12 108.985 185.12 108.239C185.12 107.331 185.732 106.712 186.928 106.416C187.554 106.262 189.588 106.262 190.84 106.423C194.731 106.916 198.221 108.175 201.247 110.167C202.035 110.687 202.267 110.807 202.33 110.737C202.379 110.694 204.082 108.337 206.116 105.516L209.824 100.379L209.627 100.218C209.092 99.7884 207.776 98.8948 206.897 98.3671C203.646 96.411 200.008 95.1375 195.885 94.5113C193.162 94.0962 189.609 93.9273 186.914 94.0821Z" fill="#0054A5"/>
<path d="M122.182 105.438C120.127 111.567 118.439 116.577 118.425 116.562C118.418 116.548 116.94 111.574 115.153 105.502L111.902 94.4691L103.719 94.448L95.5362 94.4339L95.5784 94.5957C95.6065 94.7224 106.745 129.052 110.016 139.092L110.755 141.365H117.566C122.956 141.365 124.391 141.344 124.412 141.273C124.433 141.231 126.263 136.052 128.479 129.776C130.703 123.493 132.525 118.371 132.539 118.378C132.56 118.406 140.652 141.287 140.652 141.337C140.652 141.351 143.719 141.365 147.47 141.365H154.288L154.717 140.077C155.751 136.946 169.5 94.5676 169.5 94.5043C169.5 94.455 166.77 94.4339 161.464 94.4339H153.422L150.263 105.185C148.525 111.095 147.047 116.084 146.984 116.274L146.872 116.612L143.142 105.452L139.42 94.2932H132.666H125.911L122.182 105.438Z" fill="#0054A5"/>
<path d="M260.406 117.759V141.154H268.251H276.097V134.469V127.785L277.729 127.799L279.361 127.82L283.766 134.483L288.163 141.154H297.085C302.989 141.154 306 141.133 306 141.083C306 141.041 303.594 137.495 300.653 133.203C297.704 128.904 295.284 125.351 295.27 125.301C295.249 125.252 295.516 125.062 295.952 124.83C299.112 123.12 301.701 120.51 302.982 117.752C303.924 115.711 304.332 113.642 304.332 110.863C304.339 107.774 303.917 105.741 302.841 103.546C301.377 100.583 299.175 98.4164 296.03 96.8332C293.18 95.4049 290.197 94.6872 286.017 94.4339C285.314 94.3917 280.023 94.3636 272.635 94.3636H260.406V117.759ZM284.294 107.591C286.651 107.929 288.128 108.992 288.593 110.687C288.783 111.377 288.769 112.686 288.572 113.326C288.065 114.93 286.82 115.929 284.716 116.394C284.047 116.541 283.808 116.548 280.058 116.577L276.097 116.612V112.066V107.521H279.952C282.119 107.521 284.019 107.556 284.294 107.591Z" fill="#0054A5"/>
<path d="M0 117.934V141.365H13.7767C29.1013 141.365 29.3335 141.358 31.8735 140.865C38.6493 139.556 42.878 135.933 43.849 130.599C44.053 129.488 44.0671 127.131 43.8771 125.998C43.5323 123.922 42.7584 122.276 41.5341 121.002C39.9862 119.405 37.8331 118.11 35.1805 117.203C34.7724 117.062 34.3925 116.928 34.3362 116.907C34.2799 116.886 34.6246 116.71 35.1101 116.506C37.5868 115.465 39.6484 113.882 40.8727 112.073C41.4708 111.187 42.0055 109.78 42.2659 108.415C42.4418 107.479 42.4418 104.868 42.2659 103.933C41.8507 101.716 40.6616 99.6336 38.98 98.1982C37.024 96.5236 34.5472 95.426 31.6132 94.9335C29.1506 94.5183 28.5243 94.5043 13.5304 94.5043H0V117.934ZM23.0292 106.473C25.4636 106.684 26.695 107.528 26.9483 109.153C27.0819 110.033 26.8286 111.039 26.322 111.616C25.8436 112.165 24.9782 112.566 23.8594 112.756C23.3036 112.847 22.5577 112.868 19.2297 112.868H15.2683V109.632V106.395H18.7371C20.6369 106.395 22.5718 106.43 23.0292 106.473ZM24.2042 122.649C26.5261 122.895 27.8981 123.901 28.1514 125.555C28.4188 127.25 27.3001 128.721 25.3651 129.22C24.4997 129.438 23.7398 129.474 19.5111 129.474H15.2683V126.026V122.578H19.4056C21.6782 122.578 23.8383 122.613 24.2042 122.649Z" fill="#0054A5"/>
<path d="M215.164 117.97V141.435H235.358H255.551V134.962V128.489H243.097H230.643V125.991V123.493H242.077H253.511V117.794V112.095H242.077H230.643V109.737V107.38H242.921H255.199V100.942V94.5043H235.182H215.164V117.97Z" fill="#0054A5"/>
<path d="M93.196 114.608C94.3184 122.619 91.8148 132.494 84.2189 135.852C75.2915 139.798 65.3983 136.293 58.9409 127.505C58.2503 127.108 68.7826 132.512 78.8312 129.439C84.7536 128.351 90.5718 122.774 93.196 114.608Z" fill="#EC1F25"/>
<path d="M80.1951 139.54C66.1234 145.876 53.7397 138.02 50.9815 131.114C46.7337 120.478 53.1395 109.998 63.3783 107.891C58.6818 111.155 53.6604 120.806 57.6458 128.455C60.7494 134.411 67.7811 140.731 80.1951 139.54Z" fill="#A09390"/>
<path d="M48.9271 129.249C42.1243 117.077 49.0758 103.072 57.18 98.257C73.7722 88.3983 87.6885 99.7073 91.3317 108.029C91.8496 108.029 95.4237 106.493 95.4238 106.631C94.1977 108.841 88.3447 119.028 87.5677 120.374C83.4584 118.717 76.2413 116.075 72.8055 114.573C75.9133 113.451 74.0141 114.124 76.7938 113.14C70.2674 105.042 62.4721 106.067 59.0274 107.304C46.7169 111.724 46.4062 123.966 48.9271 129.249Z" fill="#F6931F"/>
<path d="M131.25 33.744C131.25 33.744 159.018 5.07882 176.254 10.4672C184.241 12.9643 186.459 22.2405 197.702 47.2476C200.159 52.7128 186.239 44.316 182.844 40.9958C182.844 40.9958 184.477 53.245 182.181 54.316C177.893 56.3163 127.595 38.3889 131.25 33.744Z" fill="black"/>
<path d="M133.316 33.3914C133.316 33.3914 159.974 6.50681 175.521 11.4294C183.499 13.9555 183.64 20.8829 196.489 46.5733C199.169 51.9327 184.732 41.7974 181.336 38.4772C181.336 38.4772 183.145 52.2188 180.849 53.2898C176.562 55.2901 129.661 38.0362 133.316 33.3914Z" fill="#FF0000"/>
<path d="M184.118 40.833C181.096 37.6259 180.349 35.166 177.881 28.0102C177.881 28.0102 181.362 39.6952 181.748 42.407C182.135 45.1188 181.816 39.9365 182.472 40.1122C183.128 40.288 184.427 41.1598 184.118 40.833Z" fill="black"/>
<path d="M177.881 28.0101C177.881 28.0101 188.337 44.4906 193.703 45.9987C193.703 45.9987 193.052 46.4999 192.901 46.7227C192.787 46.8916 185.723 44.2808 182.016 38.5085C180.482 36.1201 178.763 30.5704 177.881 28.0101Z" fill="#BA0808"/>
<path d="M175.257 28.3115C175.257 28.3115 178.501 31.3231 181.174 39.9138C182.141 43.0228 180.354 32.1545 175.257 28.3115Z" fill="black"/>
<path d="M183.493 57.1039C183.696 56.041 183.939 55.2753 181.837 52.3425C179.413 50.0444 177.418 48.9208 175.768 48.2574C175.233 48.0424 178.735 48.5543 178.31 48.2787C171.466 43.8336 164.015 42.4061 164.015 42.4061L167.121 41.4976C163.028 39.095 153.619 36.8237 149.314 36.3189L152.698 35.6993C146.801 33.8095 139.415 32.7973 135.405 33.5641C135.004 33.6409 135.83 32.6408 135.83 32.6408L133.047 32.6684C129.907 32.9262 128.348 33.8106 127.431 36.7657L126.118 41.5019C125.64 42.9482 127.183 44.6302 129.805 44.7186C129.805 44.7186 136.091 45.0707 153.773 51.1691C170.477 56.9302 175.432 62.6917 175.432 62.6917C177.92 64.6968 179.953 63.6772 181.683 61.1996L183.493 57.1039Z" fill="black"/>
<path d="M177.442 62.7097C177.02 62.5966 176.569 62.3528 176.1 61.984C175.729 61.5782 174.697 60.195 170.484 57.6945C170.187 57.5185 171.588 57.8096 171.588 57.8096C169.018 56.7192 163.703 54 160.15 52.5355C159.303 52.1867 162.5 52.6832 161.571 52.33C160.496 51.9213 155.28 50.6627 154.089 50.2521C149.322 48.608 141.584 46.9077 139.058 44.5905C138.728 44.2868 140.223 45.922 139.803 45.8094C136.081 44.8121 133.548 44.2456 131.959 44.0284C130.439 43.821 129.928 42.9785 129.972 43.1435C130.166 43.8733 129.906 43.7526 129.859 43.7501L129.837 43.7492C129.464 43.7365 129.107 43.6852 128.776 43.5967C128.007 43.3905 127.39 42.9762 127.127 42.4883C126.998 42.2494 126.968 42.0202 127.039 41.8066L127.053 41.7611L128.362 37.0394C129.1 34.6673 130.769 33.548 134.402 33.4837L133.503 34.4647C137.591 33.8864 140.092 32.9548 149.003 35.3372C148.819 35.4862 146.515 36.5638 146.515 36.5638C146.515 36.5638 154.354 37.6078 164.77 41.5036C164.676 41.6407 162.713 42.3922 162.713 42.3922C162.713 42.3922 166.84 43.7322 167.403 43.8829C170.204 44.6336 173.469 46.2622 175.571 47.5698C174.634 47.4442 174.096 47.7933 174.063 47.8393C174.063 47.8393 175.15 48.392 175.709 48.701C177.672 49.7856 183.521 53.508 182.562 56.811L180.835 60.7197C179.11 63.1462 177.864 62.8228 177.447 62.711C177.445 62.7105 177.444 62.7101 177.442 62.7097Z" fill="white"/>
<path d="M179.92 61.8106C178.673 63.0312 177.786 62.8017 177.447 62.7108L177.441 62.7093C177.019 62.5963 176.569 62.3511 176.099 61.9822C175.729 61.5779 174.696 60.1944 170.483 57.6937C170.187 57.5177 171.589 57.8092 171.589 57.8092C169.017 56.7182 163.704 53.999 160.149 52.5343C159.303 52.1849 162.5 52.6819 161.57 52.3285C160.495 51.9197 155.28 50.6611 154.09 50.2518C149.323 48.6066 141.585 46.9069 139.058 44.5889C138.728 44.2855 140.222 45.9212 139.802 45.8087C136.08 44.8114 133.548 44.2455 131.959 44.0285C130.439 43.8199 129.929 42.9784 129.971 43.1424C130.166 43.8713 129.906 43.7517 129.859 43.7491L129.837 43.7491C129.463 43.7352 129.107 43.6841 128.777 43.5957C128.007 43.3893 127.391 42.9753 127.128 42.487C126.997 42.2489 126.968 42.0185 127.039 41.8063L127.054 41.76L128.361 37.0385C128.872 35.4017 129.823 34.363 131.557 33.8532C130.975 34.1555 129.544 34.81 129.24 36.5696L128.275 40.4039C128.192 41.0093 128.397 41.4384 128.554 41.6587C129.028 42.3255 129.858 42.4128 130.628 42.6192C130.958 42.7075 131.315 42.7592 131.687 42.7726L131.71 42.7725C131.757 42.7752 132.016 42.8948 131.824 42.1664C131.78 42.0018 132.291 42.8439 133.81 43.052C135.399 43.2689 137.931 43.8351 141.653 44.8324C142.075 44.9454 140.579 43.3091 140.909 43.6126C143.436 45.9306 151.173 47.6303 155.941 49.2754C157.131 49.6847 162.708 51.6102 163.783 52.019C164.711 52.3719 161.743 52.2536 162.589 52.6029C166.143 54.0675 171.18 56.1183 173.75 57.2087C173.75 57.2087 172.205 57.1001 172.501 57.276C176.716 59.7773 177.58 60.6015 177.952 61.0063C178.42 61.3747 178.87 61.62 179.294 61.7335C179.294 61.7335 179.296 61.734 179.297 61.7344C179.427 61.7689 179.638 61.8256 179.92 61.8106Z" fill="#E5E5E5"/>
<path d="M191.955 55.6557C191.283 54.8057 187.18 50.8986 190.398 46.0327C191.34 44.6073 193.478 43.0606 194.789 42.4551C194.944 42.3834 193.405 44.4762 194.303 44.0824C197.219 42.8034 201.425 42.1082 203.735 43.4408C203.931 43.5537 201.618 44.1409 201.808 44.2729C202.071 44.4568 205.526 46.7005 206.148 50.3153C206.148 50.3153 205.453 49.4462 204.78 50.0534C204.379 50.4147 205.337 52.1276 203.679 55.4663C202.876 57.0839 200.537 59.3614 198.782 59.181C198.782 59.181 199.305 57.7348 198.916 57.7887C194.403 58.4146 190.62 56.8882 190.419 56.2653C190.398 56.2001 192.327 56.1272 191.955 55.6557Z" fill="black"/>
<path d="M192.381 56.3677C192.56 56.417 193.052 56.2919 192.855 55.8743C192.607 55.3464 187.876 51.6592 191.245 46.5487C191.713 45.8375 193.154 44.3925 193.008 44.7186C192.851 45.0706 192.661 46.2059 193.493 45.5903C195.444 44.1456 199.316 43.0379 201.425 43.6642C201.416 43.7194 200.593 43.9222 200.714 44.3572C200.8 44.665 203.978 45.961 205.518 49.4151C204.892 48.8117 204.177 49.2373 204.134 49.4711C203.897 50.7603 204.437 52.1613 203.218 54.6532C202.569 55.9813 201.109 57.7236 200.136 58.0118C200.041 57.7563 200.463 56.9481 199.956 56.1625C199.852 56.0025 199.874 56.4597 198.976 56.8267C195.651 58.1846 192.479 56.5126 192.381 56.3677Z" fill="white"/>
<path d="M203.769 53.2809C203.641 53.7309 203.454 54.2248 203.183 54.7698C202.523 56.0912 201.051 57.8247 200.076 58.1053C199.984 57.8485 200.208 56.8408 200.047 56.3173C200.024 56.2444 199.826 56.5514 198.925 56.9102C195.59 58.245 192.43 56.5506 192.334 56.4053C192.511 56.4542 193.005 56.3329 192.811 55.9149C192.579 55.4123 188.348 52.0482 190.794 47.375C189.777 51.2827 193.172 54.0121 193.379 54.4614C193.573 54.8794 193.081 55.001 192.901 54.9514C192.998 55.0972 196.159 56.7917 199.494 55.4571C200.394 55.0976 200.372 54.6417 200.478 54.8004C200.777 55.249 200.726 56.4071 200.644 56.6518C201.619 56.371 203.093 54.6379 203.751 53.316C203.757 53.3038 203.764 53.2917 203.769 53.2809Z" fill="#E5E5E5"/>
</svg>
