<svg width="24" height="24" viewBox="0 0 24 24" fill="none" xmlns="http://www.w3.org/2000/svg">
<path d="M22.5011 12.2331C22.5011 11.3698 22.4296 10.7398 22.2749 10.0864H12.2153V13.9831H18.1201C18.0011 14.9514 17.3582 16.4097 15.9296 17.3897L15.9095 17.5202L19.0902 19.9349L19.3106 19.9564C21.3344 18.1248 22.5011 15.4297 22.5011 12.2331Z" fill="#4285F4"/>
<path d="M12.2146 22.5001C15.1075 22.5001 17.536 21.5667 19.3099 19.9567L15.9289 17.3899C15.0241 18.0083 13.8099 18.44 12.2146 18.44C9.38136 18.44 6.97663 16.6084 6.11941 14.0767L5.99376 14.0871L2.6865 16.5955L2.64325 16.7133C4.40513 20.1433 8.02416 22.5001 12.2146 22.5001Z" fill="#34A853"/>
<path d="M6.12004 14.0764C5.89385 13.4231 5.76295 12.7231 5.76295 11.9998C5.76295 11.2764 5.89386 10.5764 6.10814 9.9231L6.10215 9.78397L2.75343 7.23535L2.64387 7.28643C1.91771 8.70975 1.50104 10.3081 1.50104 11.9998C1.50104 13.6915 1.91771 15.2897 2.64387 16.7131L6.12004 14.0764Z" fill="#FBBC05"/>
<path d="M12.2147 5.55997C14.2266 5.55997 15.5837 6.41164 16.3576 7.12335L19.3813 4.23C17.5243 2.53834 15.1075 1.5 12.2147 1.5C8.02424 1.5 4.40514 3.85665 2.64325 7.28662L6.10753 9.92332C6.97666 7.39166 9.38144 5.55997 12.2147 5.55997Z" fill="#EB4335"/>
</svg>
